<svg xmlns="http://www.w3.org/2000/svg" width="360" height="53" viewBox="0 0 360 53">
  <g id="statusHomePage" transform="translate(0 -31)">
    <rect id="Rectangle_164" data-name="Rectangle 164" width="360" height="53" transform="translate(0 31)" fill="#f6f6f6"/>
    <g id="Group_281" data-name="Group 281" transform="translate(-178 120)">
      <text id=":_شماره_سفارش" data-name=": شماره سفارش" transform="translate(354 -76)" fill="#b0bec5" font-size="12" font-family="SegoeUI-Light, Segoe UI" font-weight="300"><tspan x="-74.32" y="0">: </tspan><tspan y="0" font-family="SegoeUI-Semilight, Segoe UI">شماره</tspan><tspan y="0"> </tspan><tspan y="0" font-family="SegoeUI-Semilight, Segoe UI">سفارش</tspan></text>
      <text id=":_وضعیت" data-name=": وضعیت" transform="translate(354 -49)" fill="#b0bec5" font-size="12" font-family="SegoeUI-Light, Segoe UI" font-weight="300"><tspan x="-44.555" y="0">: </tspan><tspan y="0" font-family="SegoeUI-Semilight, Segoe UI">وضعیت</tspan></text>
      <text id="CH_1325812" transform="translate(253 -76)" fill="#37474f" font-size="11.5" font-family="SegoeUI-Light, Segoe UI" font-weight="300"><tspan x="-54.945" y="0">CH_</tspan><tspan y="0" font-family="SegoeUI-Semilight, Segoe UI">1325812</tspan></text>
      <text id="در_حال_جمع_آوری" data-name="در حال جمع آوری" transform="translate(275 -49)" fill="#37474f" font-size="11.5" font-family="SegoeUI-Light, Segoe UI" font-weight="300"><tspan x="-76.294" y="0"> </tspan><tspan y="0"> </tspan><tspan y="0"> </tspan><tspan y="0" font-family="SegoeUI-Semilight, Segoe UI">در حال جمع آ</tspan></text>
    </g>
    <g id="Group_285" data-name="Group 285" transform="translate(-176 10)">
      <g id="Group_283" data-name="Group 283" transform="translate(21 110)">
        <text id="_20" data-name="20" transform="translate(397 -49)" fill="#263238" font-size="12" font-family="SegoeUI, Segoe UI"><tspan x="-13.031" y="0">20</tspan></text>
        <text id="دقیقه" transform="translate(384 -49)" fill="#263238" font-size="12" font-family="SegoeUI, Segoe UI"><tspan x="-18.621" y="0">دقیقه</tspan></text>
      </g>
      <text id="زمان_تخمینی" data-name="زمان تخمینی" transform="translate(429 34)" fill="#263238" font-size="12" font-family="SegoeUI-Light, Segoe UI" font-weight="300"><tspan x="-60.094" y="0"> </tspan><tspan y="0" font-family="SegoeUI-Semilight, Segoe UI">زمان تخمین</tspan></text>
    </g>
    <g id="Group_284" data-name="Group 284" transform="translate(274 32)">
      <g id="Group_1049" data-name="Group 1049" transform="translate(2 2)">
        <g id="Group_1025" data-name="Group 1025" transform="translate(39.154 32.738)">
          <path id="Path_6587" data-name="Path 6587" d="M190.4,195.934h27.591c.016-.2.028-.4.028-.6a5.685,5.685,0,0,0-11.262-1.1,4.733,4.733,0,0,0-8.879,1,4.011,4.011,0,0,0-7.478.7Z" transform="translate(-190.395 -187.154)" fill="#8999cd"/>
          <ellipse id="Ellipse_350" data-name="Ellipse 350" cx="0.992" cy="0.992" rx="0.992" ry="0.992" transform="translate(14.532)" fill="#b8cae8"/>
          <circle id="Ellipse_351" data-name="Ellipse 351" cx="0.675" cy="0.675" r="0.675" transform="translate(10.72 2.644)" fill="#b8cae8"/>
          <circle id="Ellipse_352" data-name="Ellipse 352" cx="0.37" cy="0.37" r="0.37" transform="translate(7.495 1.598)" fill="#b8cae8"/>
          <circle id="Ellipse_353" data-name="Ellipse 353" cx="0.37" cy="0.37" r="0.37" transform="translate(19.09 1.615)" fill="#b8cae8"/>
          <circle id="Ellipse_354" data-name="Ellipse 354" cx="0.165" cy="0.165" r="0.165" transform="translate(7.046 6.603)" fill="#b8cae8"/>
          <ellipse id="Ellipse_355" data-name="Ellipse 355" cx="0.278" cy="0.278" rx="0.278" ry="0.278" transform="translate(14.532 3.959)" fill="#b8cae8"/>
          <circle id="Ellipse_356" data-name="Ellipse 356" cx="0.165" cy="0.165" r="0.165" transform="translate(7.534 4.349)" fill="#b8cae8"/>
          <circle id="Ellipse_357" data-name="Ellipse 357" cx="0.165" cy="0.165" r="0.165" transform="translate(10.72 0.159)" fill="#b8cae8"/>
        </g>
        <g id="Group_1048" data-name="Group 1048" transform="translate(0)">
          <g id="Group_1026" data-name="Group 1026" transform="translate(32.26 27.649)">
            <path id="Path_6588" data-name="Path 6588" d="M218.1,182.064a6.936,6.936,0,1,1-6.81,6.935A6.873,6.873,0,0,1,218.1,182.064Zm0,11.858A4.924,4.924,0,1,0,213.263,189,4.88,4.88,0,0,0,218.1,193.922Z" transform="translate(-211.288 -182.064)" fill="#193769"/>
            <ellipse id="Ellipse_358" data-name="Ellipse 358" cx="3.827" cy="3.897" rx="3.827" ry="3.897" transform="translate(2.983 3.038)" fill="#193769"/>
          </g>
          <g id="Group_1027" data-name="Group 1027" transform="translate(32.428 27.417)">
            <path id="Path_6589" data-name="Path 6589" d="M212.136,182.8h.18c.047,0,.1.1.08.188l-.26,1.369Z" transform="translate(-199.796 -181.832)" fill="#c22c5e"/>
            <path id="Path_6590" data-name="Path 6590" d="M213.889,182.624a6.454,6.454,0,0,1,5.307-.4,8.747,8.747,0,0,0,3.006.571l.637,0v1.554l-.584,0,.217.263a.55.55,0,0,0,.426.2l.162.017a.477.477,0,0,1,.338.14l.006.005c.173.173.075.271.32.271h0a.888.888,0,0,1,.63.261l.368.368a.062.062,0,0,1-.044.1h-1.634a.708.708,0,0,0-.5.209l-1.069,1.069a1.443,1.443,0,0,1-1.02.422h-9.876l-.077-.433A7.029,7.029,0,0,1,213.889,182.624Z" transform="translate(-210.499 -181.832)" fill="#8999cd"/>
          </g>
          <g id="Group_1028" data-name="Group 1028" transform="translate(15.496 7.083)">
            <path id="Path_6591" data-name="Path 6591" d="M239.149,161.52l-.47,4.683c-.013.174-.151.274-.329.319l-4.843,1.444v.388l6.046-.659a.438.438,0,0,0,.456-.3l1.663-4.972-2.479-.927Z" transform="translate(-233.507 -161.498)" fill="#c32c5e"/>
            <path id="Path_6592" data-name="Path 6592" d="M234.435,161.619l1.5,2.214-1.157,3.92-.588.039Z" transform="translate(-228.445 -161.498)" fill="#ab2752"/>
          </g>
          <path id="Path_6593" data-name="Path 6593" d="M219.191,191.992c1.133-.7.754-.885,4.766-.772,4.466.075,7.621-.016,8.13-.016.9,0,1.777.738,2.889.738,1.149,0,1.334-.678,2.543-.678l8.092.013h.006a2.233,2.233,0,0,0,2.139-1.517,2.271,2.271,0,0,0-2.139-3l-4.167,0h-.295l-.675,0h-.728l-2.889,0a.314.314,0,0,1-.314-.324,18.393,18.393,0,0,1,.223-2.248,10.683,10.683,0,0,1,.546-2.142,4.63,4.63,0,0,1,1.077-1.77c1.846-1.734-10.067.329-10.067.329-.081,1.3,1.665,4.748,2.707,6.522a.146.146,0,0,1-.126.22h-4.5c-2.873-.129-7.362-.672-5.351-11.527a14.245,14.245,0,0,1,1.052-3.708c.345-.7.713-1.3.97-1.775.019-.031.038-.062.054-.094a2.457,2.457,0,0,0,.317-.791,1.725,1.725,0,0,0-.151-.791,4.13,4.13,0,0,0-2.813-2.161,8.024,8.024,0,0,0-1.947-.125c-.066,0-.129,0-.189.006-.775.028-.48,4.113.845,3.912a.193.193,0,0,0,.041-.006c1.049-.22,1.516.085,1.586.236.244,1.293-1.253-.148-5.919,8.365a79.36,79.36,0,0,1,4.323,10.013A6.536,6.536,0,0,1,219.191,191.992Z" transform="translate(-205.607 -154.415)" fill="#102134"/>
          <g id="Group_1029" data-name="Group 1029" transform="translate(31.631 32.591)">
            <path id="Path_6594" data-name="Path 6594" d="M215.657,189.088v-.173a2.442,2.442,0,0,0-.39-1.228.452.452,0,0,1,.39-.681h7.8a2.048,2.048,0,0,1,2.075,1.932,1.991,1.991,0,0,1-1.991,2.053h-7.888a.452.452,0,0,1-.387-.679A2.447,2.447,0,0,0,215.657,189.088Z" transform="translate(-215.205 -187.006)" fill="#193769"/>
            <ellipse id="Ellipse_359" data-name="Ellipse 359" cx="0.721" cy="0.721" rx="0.721" ry="0.721" transform="translate(7.305 1.272)" fill="#f1a15a"/>
            <rect id="Rectangle_365" data-name="Rectangle 365" width="4.852" height="0.972" rx="0.46" transform="translate(1.257 1.507)" fill="#b8cae8"/>
          </g>
          <g id="Group_1038" data-name="Group 1038" transform="translate(31.206 27.885)">
            <g id="Group_1033" data-name="Group 1033" transform="translate(0)">
              <path id="Path_6595" data-name="Path 6595" d="M220.472,185.681l1.341-1.338.012-.009.308.308a.177.177,0,0,1,.041.241.18.18,0,0,0,.037.245l.8.8a.279.279,0,0,1,.063.1l.075.216a.241.241,0,0,0,.06.1l1.121,1.121a.526.526,0,0,1-.744.744l-1.118-1.124a.218.218,0,0,0-.1-.06l-.217-.075a.275.275,0,0,1-.1-.063l-.135-.135-.669-.669a.181.181,0,0,0-.245-.041.178.178,0,0,1-.242-.038l-.308-.307C220.462,185.69,220.469,185.687,220.472,185.681Zm1.124.377.377.377a.416.416,0,1,0,.59-.588l-.377-.379a.417.417,0,1,0-.59.59Z" transform="translate(-218.987 -182.3)" fill="#fff8d2"/>
              <g id="Group_1030" data-name="Group 1030" transform="translate(3.525 4.085)">
                <rect id="Rectangle_366" data-name="Rectangle 366" width="2.078" height="0.632" rx="0.299" transform="matrix(-0.707, -0.708, 0.708, -0.707, 1.469, 1.917)" fill="#fff8d2"/>
                <rect id="Rectangle_367" data-name="Rectangle 367" width="0.374" height="0.374" rx="0.177" transform="translate(1.279 1.275)" fill="#fff8d2"/>
              </g>
              <g id="Group_1032" data-name="Group 1032" transform="translate(0)">
                <path id="Path_6596" data-name="Path 6596" d="M223.482,185.861a.141.141,0,0,0,.108.007.135.135,0,0,0,.076-.059l.009-.012.846-1.695.007-.016a.142.142,0,0,0-.073-.181.149.149,0,0,0-.113-.009.137.137,0,0,0-.072.061l-.009.013-.845,1.695-.008.016A.14.14,0,0,0,223.482,185.861Z" transform="translate(-221.974 -182.3)" fill="#fff8d2"/>
                <path id="Path_6597" data-name="Path 6597" d="M223.941,185.369a.149.149,0,0,0,.113.008.121.121,0,0,0,.072-.06.017.017,0,0,0,.012-.014l.842-1.694a.055.055,0,0,0,.007-.019.141.141,0,0,0-.07-.179.163.163,0,0,0-.112-.008.121.121,0,0,0-.073.061c-.006,0-.008,0-.011.013l-.846,1.695,0,.015A.14.14,0,0,0,223.941,185.369Z" transform="translate(-222.894 -182.3)" fill="#fff8d2"/>
                <path id="Path_6598" data-name="Path 6598" d="M224.409,184.868a.143.143,0,0,0,.111.006.145.145,0,0,0,.076-.059l.009-.013.845-1.7a.027.027,0,0,0,0-.018.139.139,0,0,0-.07-.178.143.143,0,0,0-.111-.006.13.13,0,0,0-.073.058c-.006,0-.01.01-.012.014l-.845,1.694,0,.015A.141.141,0,0,0,224.409,184.868Z" transform="translate(-223.83 -182.3)" fill="#fff8d2"/>
                <path id="Path_6599" data-name="Path 6599" d="M224.905,184.4a.148.148,0,0,0,.111,0,.15.15,0,0,0,.077-.058l.009-.013.845-1.695a.027.027,0,0,0,0-.018.141.141,0,0,0-.181-.184.131.131,0,0,0-.074.057c-.006,0-.01.01-.012.014l-.845,1.7-.005.015A.143.143,0,0,0,224.905,184.4Z" transform="translate(-224.823 -182.3)" fill="#fff8d2"/>
                <path id="Path_6600" data-name="Path 6600" d="M222.945,185.874a.145.145,0,0,0,.1.044.137.137,0,0,0,.088-.034l.012-.01,1.341-1.337c0-.007.009-.01.009-.016a.135.135,0,0,0-.009-.192.137.137,0,0,0-.1-.044.129.129,0,0,0-.088.035l-.012.009-1.341,1.338c0,.006-.009.009-.009.016A.137.137,0,0,0,222.945,185.874Z" transform="translate(-221.474 -182.3)" fill="#fff8d2"/>
                <path id="Path_6601" data-name="Path 6601" d="M223.412,185.408a.146.146,0,0,0,.1.041.141.141,0,0,0,.091-.032l.013-.009,1.34-1.338.013-.012a.142.142,0,0,0-.013-.195.148.148,0,0,0-.1-.044.134.134,0,0,0-.088.035l-.013.009-1.341,1.338-.012.012A.143.143,0,0,0,223.412,185.408Z" transform="translate(-222.408 -182.3)" fill="#fff8d2"/>
                <path id="Path_6602" data-name="Path 6602" d="M223.893,184.927a.145.145,0,0,0,.1.044.123.123,0,0,0,.088-.034.016.016,0,0,0,.015-.01l1.338-1.337a.056.056,0,0,0,.012-.016.139.139,0,0,0-.009-.191.155.155,0,0,0-.1-.044.123.123,0,0,0-.088.034c-.006,0-.009,0-.015.01l-1.341,1.337-.009.013A.137.137,0,0,0,223.893,184.927Z" transform="translate(-223.369 -182.3)" fill="#fff8d2"/>
                <path id="Path_6603" data-name="Path 6603" d="M224.372,184.447a.148.148,0,0,0,.194.009l.013-.009,1.341-1.338a.025.025,0,0,0,.009-.015.142.142,0,0,0-.009-.192.147.147,0,0,0-.1-.041.133.133,0,0,0-.088.032.028.028,0,0,0-.016.009l-1.34,1.338-.01.012A.142.142,0,0,0,224.372,184.447Z" transform="translate(-224.328 -182.3)" fill="#fff8d2"/>
                <g id="Group_1031" data-name="Group 1031" transform="translate(0.024)">
                  <path id="Path_6604" data-name="Path 6604" d="M224.809,183.69l1.064-1.061c.006-.006.01-.009.01-.016a.144.144,0,0,0-.01-.191.155.155,0,0,0-.1-.044.12.12,0,0,0-.088.034c-.007,0-.01,0-.016.01l-.741.741C224.881,183.339,224.843,183.514,224.809,183.69Z" transform="translate(-224.786 -182.3)" fill="#fff8d2"/>
                  <path id="Path_6605" data-name="Path 6605" d="M224.731,183.823l1.168-1.174a.222.222,0,0,0-.3-.315h0l-.039.032s-.424.433-.645.646C224.828,183.263,224.731,183.823,224.731,183.823Zm1.018-1.236-.865.863c.018-.087.037-.168.057-.247l.741-.735c.008-.008.034-.034.084.012a.066.066,0,0,1,0,.083Z" transform="translate(-224.731 -182.3)" fill="#fff8d2"/>
                </g>
              </g>
            </g>
            <g id="Group_1037" data-name="Group 1037" transform="translate(0)">
              <path id="Path_6606" data-name="Path 6606" d="M220.472,185.681l1.341-1.338.012-.009.308.308a.177.177,0,0,1,.041.241.18.18,0,0,0,.037.245l.8.8a.279.279,0,0,1,.063.1l.075.216a.241.241,0,0,0,.06.1l1.121,1.121a.526.526,0,0,1-.744.744l-1.118-1.124a.218.218,0,0,0-.1-.06l-.217-.075a.275.275,0,0,1-.1-.063l-.135-.135-.669-.669a.181.181,0,0,0-.245-.041.178.178,0,0,1-.242-.038l-.308-.307C220.462,185.69,220.469,185.687,220.472,185.681Zm1.124.377.377.377a.416.416,0,1,0,.59-.588l-.377-.379a.417.417,0,1,0-.59.59Z" transform="translate(-218.987 -182.3)" fill="#102134" stroke="#102134" stroke-miterlimit="10" stroke-width="0.1"/>
              <g id="Group_1034" data-name="Group 1034" transform="translate(3.525 4.085)">
                <rect id="Rectangle_368" data-name="Rectangle 368" width="2.078" height="0.632" rx="0.299" transform="matrix(-0.707, -0.708, 0.708, -0.707, 1.469, 1.917)" fill="#f6fcfe"/>
                <rect id="Rectangle_369" data-name="Rectangle 369" width="0.374" height="0.374" rx="0.177" transform="translate(1.279 1.275)" fill="#c22c5e"/>
              </g>
              <g id="Group_1036" data-name="Group 1036" transform="translate(0)">
                <path id="Path_6607" data-name="Path 6607" d="M223.482,185.861a.141.141,0,0,0,.108.007.135.135,0,0,0,.076-.059l.009-.012.846-1.695.007-.016a.142.142,0,0,0-.073-.181.149.149,0,0,0-.113-.009.137.137,0,0,0-.072.061l-.009.013-.845,1.695-.008.016A.14.14,0,0,0,223.482,185.861Z" transform="translate(-221.974 -182.3)" fill="#193769"/>
                <path id="Path_6608" data-name="Path 6608" d="M223.941,185.369a.149.149,0,0,0,.113.008.121.121,0,0,0,.072-.06.017.017,0,0,0,.012-.014l.842-1.694a.055.055,0,0,0,.007-.019.141.141,0,0,0-.07-.179.163.163,0,0,0-.112-.008.121.121,0,0,0-.073.061c-.006,0-.008,0-.011.013l-.846,1.695,0,.015A.14.14,0,0,0,223.941,185.369Z" transform="translate(-222.894 -182.3)" fill="#193769"/>
                <path id="Path_6609" data-name="Path 6609" d="M224.409,184.868a.143.143,0,0,0,.111.006.145.145,0,0,0,.076-.059l.009-.013.845-1.7a.027.027,0,0,0,0-.018.139.139,0,0,0-.07-.178.143.143,0,0,0-.111-.006.13.13,0,0,0-.073.058c-.006,0-.01.01-.012.014l-.845,1.694,0,.015A.141.141,0,0,0,224.409,184.868Z" transform="translate(-223.83 -182.3)" fill="#193769"/>
                <path id="Path_6610" data-name="Path 6610" d="M224.905,184.4a.148.148,0,0,0,.111,0,.15.15,0,0,0,.077-.058l.009-.013.845-1.695a.027.027,0,0,0,0-.018.141.141,0,0,0-.181-.184.131.131,0,0,0-.074.057c-.006,0-.01.01-.012.014l-.845,1.7-.005.015A.143.143,0,0,0,224.905,184.4Z" transform="translate(-224.823 -182.3)" fill="#193769"/>
                <path id="Path_6611" data-name="Path 6611" d="M222.945,185.874a.145.145,0,0,0,.1.044.137.137,0,0,0,.088-.034l.012-.01,1.341-1.337c0-.007.009-.01.009-.016a.135.135,0,0,0-.009-.192.137.137,0,0,0-.1-.044.129.129,0,0,0-.088.035l-.012.009-1.341,1.338c0,.006-.009.009-.009.016A.137.137,0,0,0,222.945,185.874Z" transform="translate(-221.474 -182.3)" fill="#102134" stroke="#102134" stroke-miterlimit="10" stroke-width="0.5"/>
                <path id="Path_6612" data-name="Path 6612" d="M223.412,185.408a.146.146,0,0,0,.1.041.141.141,0,0,0,.091-.032l.013-.009,1.34-1.338.013-.012a.142.142,0,0,0-.013-.195.148.148,0,0,0-.1-.044.134.134,0,0,0-.088.035l-.013.009-1.341,1.338-.012.012A.143.143,0,0,0,223.412,185.408Z" transform="translate(-222.408 -182.3)" fill="#102134" stroke="#102134" stroke-miterlimit="10" stroke-width="0.5"/>
                <path id="Path_6613" data-name="Path 6613" d="M223.893,184.927a.145.145,0,0,0,.1.044.123.123,0,0,0,.088-.034.016.016,0,0,0,.015-.01l1.338-1.337a.056.056,0,0,0,.012-.016.139.139,0,0,0-.009-.191.155.155,0,0,0-.1-.044.123.123,0,0,0-.088.034c-.006,0-.009,0-.015.01l-1.341,1.337-.009.013A.137.137,0,0,0,223.893,184.927Z" transform="translate(-223.369 -182.3)" fill="#102134" stroke="#102134" stroke-miterlimit="10" stroke-width="0.5"/>
                <path id="Path_6614" data-name="Path 6614" d="M224.372,184.447a.148.148,0,0,0,.194.009l.013-.009,1.341-1.338a.025.025,0,0,0,.009-.015.142.142,0,0,0-.009-.192.147.147,0,0,0-.1-.041.133.133,0,0,0-.088.032.028.028,0,0,0-.016.009l-1.34,1.338-.01.012A.142.142,0,0,0,224.372,184.447Z" transform="translate(-224.328 -182.3)" fill="#102134" stroke="#102134" stroke-miterlimit="10" stroke-width="0.5"/>
                <g id="Group_1035" data-name="Group 1035" transform="translate(0.024)">
                  <path id="Path_6615" data-name="Path 6615" d="M224.809,183.69l1.064-1.061c.006-.006.01-.009.01-.016a.144.144,0,0,0-.01-.191.155.155,0,0,0-.1-.044.12.12,0,0,0-.088.034c-.007,0-.01,0-.016.01l-.741.741C224.881,183.339,224.843,183.514,224.809,183.69Z" transform="translate(-224.786 -182.3)" fill="#102134"/>
                  <path id="Path_6616" data-name="Path 6616" d="M224.731,183.823l1.168-1.174a.222.222,0,0,0-.3-.315h0l-.039.032s-.424.433-.645.646C224.828,183.263,224.731,183.823,224.731,183.823Zm1.018-1.236-.865.863c.018-.087.037-.168.057-.247l.741-.735c.008-.008.034-.034.084.012a.066.066,0,0,1,0,.083Z" transform="translate(-224.731 -182.3)" fill="#102134"/>
                </g>
              </g>
            </g>
          </g>
          <path id="Path_6617" data-name="Path 6617" d="M249.968,181.458a7.2,7.2,0,1,1-7.2,7.2A7.2,7.2,0,0,1,249.968,181.458Zm0,12.768a5.568,5.568,0,1,0-5.568-5.568A5.568,5.568,0,0,0,249.968,194.226Z" transform="translate(-242.768 -154.415)" fill="#193769"/>
          <circle id="Ellipse_360" data-name="Ellipse 360" cx="4.743" cy="4.743" r="4.743" transform="translate(2.457 29.5)" fill="none" stroke="#1a1818" stroke-miterlimit="10" stroke-width="1"/>
          <ellipse id="Ellipse_361" data-name="Ellipse 361" cx="1.451" cy="1.451" rx="1.451" ry="1.451" transform="translate(5.75 32.792)" fill="#ffe49e"/>
          <g id="Group_1039" data-name="Group 1039" transform="translate(3.446 26.184)">
            <path id="Path_6618" data-name="Path 6618" d="M250.155,185.083c-.49.5-1.321.2-1.281-.259a2.327,2.327,0,0,0-2.868-2.034c-.415.111-.465-.652-.065-1.129.424-.506,4.969-1.736,6.142-.586.493.919.8,1.58,1.639,3.21A4.53,4.53,0,0,0,250.155,185.083Z" transform="translate(-245.666 -180.599)" fill="#f1a15a"/>
            <path id="Path_6619" data-name="Path 6619" d="M239.042,187.659c-1.324-.037-6.57-.551-7.115.391s5.427.671,6.749.671C240.182,188.721,240.316,187.7,239.042,187.659Z" transform="translate(-218.081 -180.599)" fill="#8999cd"/>
          </g>
          <g id="Group_1040" data-name="Group 1040" transform="translate(6.356 26.094)">
            <rect id="Rectangle_370" data-name="Rectangle 370" width="0.556" height="3.145" transform="translate(2.639 3.164) rotate(-162.12)" fill="#f6fcfe"/>
            <rect id="Rectangle_371" data-name="Rectangle 371" width="1.177" height="6.426" rx="0.558" transform="matrix(-0.952, -0.307, 0.307, -0.952, 1.121, 8.885)" fill="#102134"/>
          </g>
          <g id="Group_1041" data-name="Group 1041" transform="translate(21.222 18.135)">
            <path id="Path_6620" data-name="Path 6620" d="M211.333,177.712a97.358,97.358,0,0,1,10.479-2.289s13.016-2.277,14.134-2.833c0,.177,0,1.086-.01,1.969-.012.952-.384,1.874-1.162,1.874-.509,0-.537.356-.612,1.787s-1.338,1.376-13.527,2.581c-.244.02-7.747,1.471-9.062,1.1C209.595,179.8,209.031,178.478,211.333,177.712Z" transform="translate(-209.834 -172.55)" fill="#102134"/>
            <path id="Path_6621" data-name="Path 6621" d="M208.783,172.684c.088-.027.7-.1,1.057-.134a5.568,5.568,0,0,1-1.06,1.861" transform="translate(-182.674 -172.55)" fill="#c32c5e"/>
          </g>
          <path id="Path_6622" data-name="Path 6622" d="M211.784,176c.158-.248,2.612-4.261,1.794-2.048-.53,1.432-.085,5.632,1.015,9.316,1,3.348,2.541,6.269,4.381,6.292,1.375.017,5.225-.012,6.387,0a2.231,2.231,0,0,0,2.021-1.26.274.274,0,0,0,0-.309c-7.208-10.847-4.793-9.17,5.593-11.6,1.4-.329,1.939-.452,3.187-.729,7.277-1.618,8.679-1.931,11.982-3.242v1.261s-5.844,1.507-8.867,2.209a10.764,10.764,0,0,0-5,2.644c-3.765,3.581-3.076,7.892-3.17,8.867-.011.11-.045-.263.043-.195a2.59,2.59,0,0,1,1.037,2.315,2.282,2.282,0,0,1-1.836,1.847,2.89,2.89,0,0,1-1.7-.372,1.357,1.357,0,0,0-1.152-.167,3.017,3.017,0,0,1-1.039.157l-9.572.009a2.444,2.444,0,0,1-1.771-.791c-1.689-1.888-3.755-7.619-5.021-9.587a1.634,1.634,0,0,1-.022-1.723C210.631,177.954,211.238,176.841,211.784,176Z" transform="translate(-200.809 -154.415)" fill="#8999cd"/>
          <path id="Path_6623" data-name="Path 6623" d="M230.98,179.152c-2.846.413-3.25,1.027-3.059,1.64a20.268,20.268,0,0,0,1.9,4c.287.242.611.205.6-.178a9.366,9.366,0,0,1,.94-4.752C231.659,179.327,231.277,179.109,230.98,179.152Z" transform="translate(-202.183 -154.415)" fill="#102134"/>
          <path id="Path_6624" data-name="Path 6624" d="M244.874,170.284a4.888,4.888,0,0,1-.655-3.922l-.191.006C243.235,166.4,243.486,170.5,244.874,170.284Z" transform="translate(-231.287 -154.415)" fill="#f1a15a"/>
          <g id="Ellipse_362" data-name="Ellipse 362" transform="translate(28.721 34.342)" fill="#b9cae9" stroke="#102134" stroke-miterlimit="10" stroke-width="3">
            <ellipse cx="0.452" cy="0.452" rx="0.452" ry="0.452" stroke="none"/>
            <ellipse cx="0.452" cy="0.452" rx="1.952" ry="1.952" fill="none"/>
          </g>
          <circle id="Ellipse_363" data-name="Ellipse 363" cx="0.599" cy="0.599" r="0.599" transform="translate(43.306 22.994)" fill="#c32c5e" stroke="#b9cae9" stroke-miterlimit="10" stroke-width="0.5"/>
          <g id="Group_1043" data-name="Group 1043" transform="translate(15.805 13.959)">
            <g id="Group_1042" data-name="Group 1042" transform="translate(0.138)">
              <path id="Path_6625" data-name="Path 6625" d="M238.415,169.287a.871.871,0,0,1,.822-.913.8.8,0,0,1,.669.386v0l0,.009a.965.965,0,0,1,.085.17h0l.839.464h0a.671.671,0,1,1-.647,1.172h0l-.007,0,0,0-.675-.413h-.022a.726.726,0,0,1-.242.045.756.756,0,0,1-.223-.038H239l0,0A.9.9,0,0,1,238.415,169.287Z" transform="translate(-238.415 -168.374)" fill="#102134"/>
              <circle id="Ellipse_364" data-name="Ellipse 364" cx="0.344" cy="0.344" r="0.344" transform="translate(1.792 1.248)" fill="#f1a15a"/>
              <path id="Path_6626" data-name="Path 6626" d="M239.913,169.112c.218.124.263.147.494.291a.515.515,0,0,0-.352.587c-.093-.066-.4-.267-.6-.39A.357.357,0,0,1,239.913,169.112Z" transform="translate(-238.589 -168.374)" fill="#f1a15a"/>
              <path id="Path_6627" data-name="Path 6627" d="M240.89,168.786a.549.549,0,0,0-.783.261.728.728,0,0,0,.261.8.878.878,0,0,1-.018-.677A.749.749,0,0,1,240.89,168.786Z" transform="translate(-239.739 -168.374)" fill="#f1a15a"/>
            </g>
            <path id="Path_6628" data-name="Path 6628" d="M239.762,169.6s.182,1.169.21,1.884a24.779,24.779,0,0,1-.238,2.537,14.072,14.072,0,0,1,1.629-3.627l-.414-.254h-.029a.882.882,0,0,1-.289.053.923.923,0,0,1-.263-.044h-.016l0,0a1,1,0,0,1-.59-.55Z" transform="translate(-239.734 -168.374)" fill="#0e1b28"/>
          </g>
          <g id="Group_1046" data-name="Group 1046" transform="translate(33.806 3.981)">
            <g id="Group_1044" data-name="Group 1044" transform="translate(0 3.141)">
              <path id="Path_6629" data-name="Path 6629" d="M209.885,175.316c2.577-.419,9.132-1.6,12-2.314.794-.288,1.319-.533,1.477-.587l0-.147c0-.129-.126-1.8-.183-2.787-.013-.176-.022-.355-.031-.531-.007-.122-.013-.245-.019-.364-.01-.173-.019-.345-.028-.515-.038-.656-.07-1.3-.1-1.909,0-.129-.009-.258-.016-.383-.015-.267-.028-.528-.037-.779-.007-.132-.013-.257-.019-.383-.041-.848-.072-1.573-.094-2.113,0-.05,0-.1-.007-.141a.856.856,0,0,0-.329-.644.865.865,0,0,0-.559-.182c-2.581.078-8.77.339-9.489.383-.851.047-1.661.056-2,1.918-.029.154-.054.324-.076.506-.006.056-.012.116-.019.176-.025.424-.072,1.821-.15,3.341-.007.078-.013.16-.016.241C210.113,169.459,210,173.183,209.885,175.316Z" transform="translate(-209.885 -161.537)" fill="#f1a15a"/>
            </g>
            <path id="Path_6630" data-name="Path 6630" d="M217.22,173.925V161.7l-1.545.064v12.461Z" transform="translate(-209.533 -158.396)" fill="#c32c5e"/>
            <path id="Path_6631" data-name="Path 6631" d="M223.017,167.391c-3.14,0-12.836.018-12.836.018l-.043.793-.037.752h13Z" transform="translate(-209.84 -158.396)" fill="#c32c5e"/>
            <g id="Group_1045" data-name="Group 1045" transform="translate(4.137)">
              <path id="Path_6632" data-name="Path 6632" d="M216.061,158.9a4.384,4.384,0,0,1-1.143,2.3c-.5.384.824-2.244,1.061-2.282Z" transform="translate(-211.644 -158.396)" fill="#ab2752"/>
              <path id="Path_6633" data-name="Path 6633" d="M216.7,159.066c.284-.418-.983-.728-1.246-.661-.155.039-.543-.05-.656,2.647.017.527.759.483.759.483S216.532,159.321,216.7,159.066Z" transform="translate(-212.324 -158.396)" fill="#c32c5e"/>
              <path id="Path_6634" data-name="Path 6634" d="M217.382,159.371a2.31,2.31,0,0,0,1.347,1.671C219,160.308,217.382,159.371,217.382,159.371Z" transform="translate(-216.915 -158.396)" fill="#ab2752"/>
              <path id="Path_6635" data-name="Path 6635" d="M216.405,159.512c-.358-.287.554-.873.843-.894.22-.015.609-.177,1.5,2.373.135.509-.587.681-.587.681S216.636,159.7,216.405,159.512Z" transform="translate(-215.858 -158.396)" fill="#c32c5e"/>
              <path id="Path_6636" data-name="Path 6636" d="M219.2,161.126a3.118,3.118,0,0,1,.021.645l-1.408.046c-.124,0-.7-.152-.727-.545s.067-.884.394-.847A12.837,12.837,0,0,1,219.2,161.126Z" transform="translate(-217.079 -158.396)" fill="#c32c5e"/>
              <path id="Path_6637" data-name="Path 6637" d="M217.215,161.72l-1.532.051a.653.653,0,0,1,.743-.728A.678.678,0,0,1,217.215,161.72Z" transform="translate(-213.672 -158.396)" fill="#c32c5e"/>
              <path id="Path_6638" data-name="Path 6638" d="M213.716,161.7c1.511-.05,2.259-.713,2.275-1.161a.693.693,0,0,0-.763-.669,5.8,5.8,0,0,0-1.779,1.328C213.18,161.577,213.716,161.7,213.716,161.7Z" transform="translate(-210.14 -158.396)" fill="#c32c5e"/>
            </g>
          </g>
          <ellipse id="Ellipse_365" data-name="Ellipse 365" cx="0.311" cy="0.311" rx="0.311" ry="0.311" transform="translate(6.784 33.932)" fill="#f1a15a"/>
          <rect id="Rectangle_372" data-name="Rectangle 372" width="3.391" height="0.565" rx="0.268" transform="translate(8.766 29.983) rotate(107.88)" fill="#b8cae8"/>
          <path id="Path_6639" data-name="Path 6639" d="M213.894,184.31a4.2,4.2,0,0,1,1.983-1.192,5.964,5.964,0,0,1,2.372-.189,5.576,5.576,0,0,1,2.264.774,5.111,5.111,0,0,1,1.7,1.712h.005l0-.005a5.185,5.185,0,0,0-1.646-1.795,5.74,5.74,0,0,0-2.293-.884,6.229,6.229,0,0,0-2.476.1,4.526,4.526,0,0,0-2.2,1.217.195.195,0,0,0,.282.268l.005-.005Z" transform="translate(-178.596 -154.415)" fill="#b8cae8"/>
          <path id="Path_6640" data-name="Path 6640" d="M214.9,184.753a3.1,3.1,0,0,1,1.458-.889,4.426,4.426,0,0,1,1.761-.152,4.15,4.15,0,0,1,1.691.565,3.826,3.826,0,0,1,1.275,1.271h.005v0a3.876,3.876,0,0,0-1.225-1.353,4.314,4.314,0,0,0-1.72-.676,4.7,4.7,0,0,0-1.866.066,3.433,3.433,0,0,0-1.671.914.195.195,0,1,0,.281.27l.006-.007Z" transform="translate(-178.47 -154.415)" fill="#b8cae8"/>
          <path id="Path_6641" data-name="Path 6641" d="M230.113,172.284a.025.025,0,0,1-.026-.027c.105-1.524-.728-3.934-2.864-7.665a9.023,9.023,0,0,0-2.735-3.044.025.025,0,0,1-.008-.028c.181-.45.4-.841,2.025-1.707.7-.373,2.091,0,3.112.7,2.589,1.77,5.9,6.391,6.414,11.74a.027.027,0,0,1-.027.03Z" transform="translate(-203.342 -154.415)" fill="#c32c5e"/>
          <path id="Path_6642" data-name="Path 6642" d="M230.432,178.468l1.7,8.852h.569c.018-.882.014-1.182.075-1.944.1-1.29.414-2,.556-3.745.167-2.048-1.316-2.535-.683-2.943a2.08,2.08,0,0,1,.47-.242c3.389-1.124,6.125-5.567,5.9-5.534-2.046.318-4.485,2.5-6.76,3.244C230.864,176.614,230.4,177.338,230.432,178.468Z" transform="translate(-212.296 -154.415)" fill="#102134"/>
          <path id="Path_6643" data-name="Path 6643" d="M233.724,172.284c-.012.256-.063.4-.328.494-2.181.822-5.008,2.4-7.112,3.273-1.358.56-2.044,1.309-1.829,2.31l1.819,8.959h.8c.066-3.109.456-3.422.545-5.863.092-2.528-1.926-1.952.039-2.635a52.114,52.114,0,0,1,10.462-2.44,1.818,1.818,0,0,0,1.56-1.645,12.973,12.973,0,0,0,0-2.453Z" transform="translate(-206.982 -154.415)" fill="#193769"/>
          <path id="Path_6644" data-name="Path 6644" d="M231.928,163.227l-.322,1.764,1.455,2.84a22.8,22.8,0,0,1-.778-2.443C232.152,164.793,231.928,163.227,231.928,163.227Z" transform="translate(-207.499 -154.415)" fill="#ab2752"/>
          <path id="Path_6645" data-name="Path 6645" d="M239.407,162.977l-1.01,5.587c-.035.2-.218.287-.415.326l-5.111.532-.174-.413,3.544-1.314c.2-.085.349-.211.35-.421l-.184-5.609" transform="translate(-214.936 -154.415)" fill="#c32c5e"/>
          <path id="Path_6646" data-name="Path 6646" d="M239.37,160.348c-.1.195-.286.888-.771.753a3.984,3.984,0,0,0-1.219-1.47.38.38,0,0,0-.331-.2c-.3-.036.015.208-.37.308a1.783,1.783,0,0,1-2.145-.947c-.323-.71-.63-1.362-.854-1.366,1.162-.721.776-.795,1.228-1.249,1.325-1.329,1.8-1.883,3.2.179a3.793,3.793,0,0,1,.758,2.249A8.633,8.633,0,0,0,239.37,160.348Z" transform="translate(-215.882 -154.415)" fill="#f4b4cc"/>
          <g id="Group_1047" data-name="Group 1047" transform="translate(17.483)">
            <path id="Path_6647" data-name="Path 6647" d="M233.365,157.621a3.48,3.48,0,0,1,2.217-3.071,4.542,4.542,0,0,1,3.607.7c.128.133-.3.039-.258.143a4.416,4.416,0,0,1,.688,2.82,2.83,2.83,0,0,1-.6.456,1.138,1.138,0,0,1-.414.149l-.065.01a.811.811,0,0,0-.364.162c-.695.536-2.436,1.775-2.786,2.135-.158.163-.383.363-.433.4-.265.22-.339.181-.4.154-.272-.156-1.185-1.182-.95-1.444a6.528,6.528,0,0,0,2.185-1.3,2.581,2.581,0,0,0-.147-1.369A10.814,10.814,0,0,0,233.365,157.621Z" transform="translate(-233.352 -154.415)" fill="#102134"/>
            <path id="Path_6648" data-name="Path 6648" d="M239.663,158.945a6.518,6.518,0,0,1-2.184,1.3.151.151,0,0,0-.037.1l0,0a16.917,16.917,0,0,1-.2-2.714,10.8,10.8,0,0,1,2.279-.047A2.554,2.554,0,0,1,239.663,158.945Z" transform="translate(-237.223 -154.415)" fill="#b8cae8" opacity="0.44"/>
            <path id="Path_6649" data-name="Path 6649" d="M238.445,158.214a1.163,1.163,0,0,1-.04.489,1.065,1.065,0,0,1-.612.376,1.587,1.587,0,0,0-.613.194c-.227.144-1.98,1.479-2.257,1.695s-.776.755-.932.843c-.112.065-.583-.105-.583-.105l3.366-2.778Z" transform="translate(-232.177 -154.415)" fill="#c32c5e"/>
          </g>
          <path id="Path_6650" data-name="Path 6650" d="M238.806,187.32s.6,1.066.177,1.085a12.336,12.336,0,0,1-2.463-.057c-.115-.133-.146-.423.268-.489s1.21.016,1.22-.539C238.451,187.326,238.806,187.32,238.806,187.32Z" transform="translate(-218.413 -154.415)" fill="#ab2752"/>
          <path id="Path_6651" data-name="Path 6651" d="M239.11,187.32s.6,1.066.177,1.085a12.339,12.339,0,0,1-2.463-.057c-.115-.133-.146-.423.269-.489s1.209.016,1.219-.539C238.755,187.326,239.11,187.32,239.11,187.32Z" transform="translate(-219.02 -154.415)" fill="#c32c5e"/>
          <path id="Path_6652" data-name="Path 6652" d="M240.413,169.012s-.254.048-.562.116a.694.694,0,0,0-.423.283c-.13.191-.236.4-.18.536.08.2.576.356.57.278-.029-.374.6-.788.769-.8" transform="translate(-222.652 -154.415)" fill="#f4b4cc"/>
        </g>
      </g>
    </g>
  </g>
</svg>
